<svg width="158" height="53" viewBox="0 0 158 53" fill="none" xmlns="http://www.w3.org/2000/svg">
<g clip-path="url(#clip0_265_4582)">
<path d="M145.418 -7.24935e-05H12.5892C12.1051 -7.24935e-05 11.6267 -7.24934e-05 11.1438 0.00256823C10.7396 0.00520896 10.3386 0.0128803 9.93045 0.0193368C9.04384 0.0297701 8.15932 0.10777 7.28457 0.252658C6.41105 0.400701 5.5649 0.679803 4.77472 1.08053C3.98551 1.48464 3.26439 2.00974 2.63752 2.63678C2.00735 3.26206 1.48206 3.9848 1.08184 4.77721C0.680515 5.56804 0.402236 6.41549 0.256613 7.29028C0.109605 8.16397 0.0304982 9.04774 0.0200035 9.93365C0.00775053 10.3385 0.00645657 10.7446 0 11.1495V41.6687C0.00645657 42.0787 0.00775053 42.4759 0.0200035 42.886C0.0305015 43.7718 0.109608 44.6556 0.256613 45.5292C0.401834 46.4045 0.68013 47.2524 1.08184 48.0436C1.48188 48.8334 2.00724 49.5532 2.63752 50.175C3.26202 50.8049 3.9836 51.3303 4.77472 51.7313C5.56489 52.1331 6.41096 52.4139 7.28457 52.5642C8.15947 52.708 9.0439 52.786 9.93045 52.7977C10.3386 52.8067 10.7396 52.8118 11.1438 52.8118C11.6267 52.8144 12.1051 52.8144 12.5892 52.8144H145.418C145.892 52.8144 146.375 52.8144 146.849 52.8118C147.251 52.8118 147.664 52.8067 148.066 52.7977C148.951 52.7866 149.834 52.7086 150.707 52.5642C151.584 52.4128 152.433 52.1322 153.227 51.7313C154.017 51.3301 154.738 50.8046 155.362 50.175C155.991 49.5508 156.517 48.8315 156.922 48.0436C157.321 47.2519 157.596 46.404 157.739 45.5292C157.887 44.6554 157.969 43.7719 157.985 42.886C157.99 42.4759 157.99 42.0787 157.99 41.6687C158 41.189 158 40.712 158 40.2245V12.5911C158 12.1075 158 11.6279 157.99 11.1495C157.99 10.7446 157.99 10.3385 157.985 9.9336C157.969 9.04761 157.887 8.16404 157.739 7.29023C157.596 6.41594 157.32 5.56856 156.922 4.77716C156.107 3.18886 154.815 1.896 153.227 1.08041C152.433 0.680663 151.583 0.401635 150.707 0.252539C149.834 0.107013 148.951 0.0289857 148.066 0.019152C147.664 0.0127086 147.251 0.00497129 146.849 0.00239659C146.375 -0.000244141 145.892 -0.000244141 145.418 -0.000244141V-7.24935e-05Z" fill="black"/>
<path d="M11.1499 51.6592C10.7476 51.6592 10.355 51.654 9.9559 51.645C9.12907 51.6343 8.30416 51.5623 7.48796 51.4297C6.72689 51.2986 5.98962 51.0548 5.30046 50.7062C4.61762 50.3606 3.99482 49.9074 3.45591 49.364C2.90921 48.8269 2.45405 48.2041 2.10847 47.5201C1.75909 46.8316 1.5173 46.0937 1.39151 45.332C1.25568 44.5135 1.18219 43.6859 1.17167 42.8563C1.1633 42.5778 1.15234 41.6507 1.15234 41.6507V11.1495C1.15234 11.1495 1.16402 10.2366 1.17174 9.96843C1.18181 9.14014 1.25487 8.31382 1.3903 7.49662C1.51631 6.73282 1.75829 5.99275 2.10786 5.30204C2.45217 4.61851 2.9048 3.99519 3.44822 3.45624C3.99102 2.91218 4.61582 2.45663 5.29981 2.10621C5.98739 1.7588 6.72327 1.5167 7.4828 1.38801C8.30168 1.25408 9.12945 1.18168 9.95915 1.1714L11.1505 1.15527H146.842L148.048 1.17204C148.87 1.18181 149.69 1.25357 150.502 1.38672C151.269 1.51702 152.012 1.76081 152.708 2.11008C154.078 2.81627 155.193 3.93353 155.897 5.30527C156.241 5.99121 156.479 6.72523 156.603 7.48244C156.74 8.30635 156.817 9.13916 156.833 9.97424C156.837 10.3482 156.837 10.7498 156.837 11.1495C156.847 11.6447 156.847 12.116 156.847 12.5911V40.2245C156.847 40.7042 156.847 41.1723 156.837 41.6442C156.837 42.0736 156.837 42.4669 156.831 42.8717C156.816 43.6919 156.741 44.5099 156.606 45.319C156.483 46.0863 156.242 46.8299 155.893 47.524C155.545 48.2006 155.092 48.8181 154.552 49.3537C154.012 49.9 153.388 50.3559 152.704 50.7037C152.011 51.055 151.268 51.2997 150.502 51.4297C149.686 51.563 148.861 51.635 148.034 51.645C147.647 51.654 147.242 51.6592 146.849 51.6592L145.418 51.6618L11.1499 51.6592Z" fill="white"/>
<path d="M33.0048 26.2609C33.0196 25.1149 33.324 23.9912 33.8897 22.9944C34.4554 21.9977 35.2641 21.1602 36.2404 20.56C35.6202 19.6741 34.8019 18.9451 33.8507 18.4308C32.8994 17.9166 31.8413 17.6312 30.7604 17.5974C28.4548 17.3554 26.2195 18.9771 25.0446 18.9771C23.8469 18.9771 22.0379 17.6214 20.09 17.6615C18.83 17.7022 17.602 18.0686 16.5257 18.725C15.4494 19.3814 14.5615 20.3054 13.9485 21.407C11.2931 26.0045 13.2738 32.7613 15.8174 36.4776C17.0901 38.2973 18.5775 40.3301 20.5237 40.258C22.4282 40.179 23.1395 39.0435 25.4384 39.0435C27.7159 39.0435 28.3832 40.258 30.369 40.2121C32.4126 40.179 33.7001 38.3843 34.9282 36.5473C35.8426 35.2507 36.5462 33.8176 37.013 32.3012C35.8257 31.799 34.8126 30.9585 34.0998 29.8843C33.387 28.8102 33.0062 27.55 33.0048 26.2609Z" fill="black"/>
<path d="M29.254 15.1534C30.3683 13.8157 30.9172 12.0964 30.7843 10.3606C29.082 10.5394 27.5095 11.353 26.3802 12.6393C25.828 13.2677 25.4051 13.9988 25.1357 14.7907C24.8662 15.5826 24.7555 16.4199 24.8098 17.2546C25.6613 17.2634 26.5037 17.0788 27.2735 16.7149C28.0433 16.3509 28.7205 15.817 29.254 15.1534Z" fill="black"/>
<path d="M55.8539 35.8342H49.6041L48.1032 40.2659H45.4561L51.3758 23.8696H54.1261L60.0458 40.2659H57.3535L55.8539 35.8342ZM50.2514 33.7891H55.2054L52.7632 26.5968H52.6948L50.2514 33.7891Z" fill="black"/>
<path d="M72.8303 34.2896C72.8303 38.0044 70.8421 40.3911 67.8416 40.3911C67.0815 40.4309 66.3256 40.2558 65.6604 39.8859C64.9952 39.516 64.4476 38.9663 64.0804 38.2997H64.0236V44.2207H61.5698V28.3119H63.9449V30.3001H63.9901C64.3742 29.6367 64.9311 29.0898 65.6013 28.7177C66.2716 28.3455 67.0302 28.1621 67.7964 28.1868C70.8304 28.1868 72.8303 30.5851 72.8303 34.2896ZM70.3082 34.2896C70.3082 31.8694 69.0575 30.2782 67.1492 30.2782C65.2744 30.2782 64.0133 31.9029 64.0133 34.2896C64.0133 36.6982 65.2744 38.3113 67.1492 38.3113C69.0575 38.3113 70.3082 36.7318 70.3082 34.2896H70.3082Z" fill="black"/>
<path d="M85.9882 34.2896C85.9882 38.0044 83.9993 40.3911 80.9988 40.3911C80.2387 40.4309 79.4828 40.2558 78.8176 39.8859C78.1524 39.516 77.6049 38.9663 77.2376 38.2997H77.1808V44.2207H74.7271V28.3119H77.1022V30.3001H77.1473C77.5315 29.6367 78.0883 29.0898 78.7585 28.7177C79.4288 28.3455 80.1874 28.1621 80.9536 28.1868C83.9877 28.1868 85.9882 30.5851 85.9882 34.2896ZM83.4655 34.2896C83.4655 31.8694 82.2147 30.2782 80.3064 30.2782C78.4316 30.2782 77.1705 31.9029 77.1705 34.2896C77.1705 36.6982 78.4316 38.3113 80.3064 38.3113C82.2147 38.3113 83.4655 36.7318 83.4655 34.2896Z" fill="black"/>
<path d="M94.6827 35.6974C94.8646 37.3234 96.4441 38.391 98.6026 38.391C100.671 38.391 102.159 37.3233 102.159 35.8573C102.159 34.5846 101.261 33.8226 99.1364 33.3004L97.0114 32.7885C94.0007 32.0612 92.6029 30.6532 92.6029 28.3683C92.6029 25.5393 95.0683 23.5962 98.5678 23.5962C102.034 23.5962 104.409 25.5393 104.489 28.3683H102.012C101.864 26.7321 100.511 25.7444 98.5342 25.7444C96.5575 25.7444 95.2049 26.7437 95.2049 28.1981C95.2049 29.3573 96.0689 30.0394 98.1822 30.5616L99.9887 31.0051C103.353 31.8007 104.749 33.1521 104.749 35.5503C104.749 38.6179 102.307 40.5391 98.4207 40.5391C94.7845 40.5391 92.3295 38.663 92.1709 35.6973L94.6827 35.6974Z" fill="black"/>
<path d="M110.047 25.4827V28.3116H112.32V30.2548H110.047V36.845C110.047 37.8688 110.502 38.3459 111.502 38.3459C111.772 38.3412 112.041 38.3222 112.309 38.2891V40.2207C111.86 40.3046 111.403 40.3426 110.946 40.3341C108.526 40.3341 107.582 39.4251 107.582 37.1067V30.2548H105.844V28.3116H107.582V25.4827H110.047Z" fill="black"/>
<path d="M113.636 34.2893C113.636 30.5281 115.851 28.1646 119.305 28.1646C122.771 28.1646 124.976 30.528 124.976 34.2893C124.976 38.0608 122.783 40.414 119.305 40.414C115.829 40.414 113.636 38.0608 113.636 34.2893ZM122.476 34.2893C122.476 31.7092 121.294 30.1864 119.305 30.1864C117.317 30.1864 116.135 31.7208 116.135 34.2893C116.135 36.8797 117.317 38.3909 119.305 38.3909C121.294 38.3909 122.476 36.8797 122.476 34.2893H122.476Z" fill="black"/>
<path d="M126.999 28.3117H129.339V30.3464H129.396C129.554 29.7109 129.927 29.1494 130.45 28.756C130.974 28.3627 131.617 28.1617 132.271 28.1866C132.554 28.1857 132.836 28.2164 133.112 28.2782V30.5734C132.755 30.4643 132.383 30.4142 132.01 30.4251C131.653 30.4106 131.298 30.4735 130.968 30.6093C130.638 30.7452 130.342 30.9508 130.099 31.2121C129.856 31.4734 129.672 31.7841 129.561 32.123C129.449 32.4619 129.412 32.8209 129.453 33.1754V40.2659H126.999L126.999 28.3117Z" fill="black"/>
<path d="M144.426 36.7546C144.096 38.9247 141.983 40.414 139.279 40.414C135.801 40.414 133.643 38.084 133.643 34.346C133.643 30.5964 135.813 28.1646 139.175 28.1646C142.483 28.1646 144.563 30.4365 144.563 34.0611V34.9018H136.12V35.05C136.081 35.49 136.136 35.9332 136.281 36.3502C136.427 36.7672 136.659 37.1485 136.963 37.4688C137.267 37.789 137.636 38.0409 138.045 38.2077C138.454 38.3744 138.894 38.4523 139.335 38.436C139.915 38.4904 140.497 38.3561 140.995 38.0531C141.492 37.7502 141.878 37.2948 142.096 36.7546L144.426 36.7546ZM136.131 33.1868H142.108C142.13 32.7913 142.07 32.3954 141.931 32.0241C141.793 31.6528 141.58 31.3141 141.304 31.0292C141.029 30.7443 140.698 30.5194 140.332 30.3686C139.965 30.2178 139.572 30.1443 139.175 30.1528C138.776 30.1504 138.38 30.2272 138.01 30.3787C137.64 30.5302 137.304 30.7535 137.021 31.0355C136.738 31.3176 136.514 31.6529 136.361 32.0222C136.208 32.3914 136.13 32.7873 136.131 33.1868V33.1868Z" fill="black"/>
<path d="M49.9444 11.5282C50.4588 11.4913 50.975 11.569 51.4558 11.7558C51.9365 11.9425 52.3699 12.2336 52.7245 12.6081C53.0791 12.9826 53.3462 13.4311 53.5065 13.9213C53.6668 14.4116 53.7163 14.9312 53.6514 15.4429C53.6514 17.9598 52.2911 19.4066 49.9444 19.4066H47.0986V11.5282H49.9444ZM48.3223 18.2924H49.8077C50.1753 18.3144 50.5432 18.2541 50.8845 18.116C51.2259 17.9779 51.5322 17.7654 51.781 17.494C52.0299 17.2225 52.2151 16.899 52.3232 16.547C52.4313 16.195 52.4595 15.8233 52.4059 15.4589C52.4556 15.0961 52.4246 14.7267 52.3148 14.3772C52.2051 14.0278 52.0194 13.7069 51.7711 13.4376C51.5228 13.1684 51.218 12.9574 50.8785 12.8198C50.5391 12.6821 50.1734 12.6213 49.8077 12.6416H48.3223V18.2924Z" fill="black"/>
<path d="M55.0338 16.4311C54.9964 16.0403 55.0411 15.6461 55.165 15.2737C55.2889 14.9013 55.4893 14.5588 55.7533 14.2684C56.0173 13.9779 56.3391 13.7458 56.698 13.587C57.0569 13.4282 57.4451 13.3462 57.8376 13.3462C58.2301 13.3462 58.6183 13.4282 58.9772 13.587C59.3362 13.7458 59.658 13.9779 59.9219 14.2684C60.1859 14.5588 60.3863 14.9013 60.5102 15.2737C60.6341 15.6461 60.6788 16.0403 60.6414 16.4311C60.6795 16.8222 60.6354 17.2169 60.5118 17.59C60.3882 17.963 60.188 18.3061 59.9239 18.5971C59.6598 18.8881 59.3378 19.1207 58.9785 19.2798C58.6192 19.439 58.2306 19.5212 57.8376 19.5212C57.4446 19.5212 57.056 19.439 56.6967 19.2798C56.3374 19.1207 56.0154 18.8881 55.7513 18.5971C55.4873 18.3061 55.287 17.963 55.1634 17.59C55.0398 17.2169 54.9957 16.8222 55.0338 16.4311ZM59.4345 16.4311C59.4345 15.1423 58.8556 14.3886 57.8395 14.3886C56.8196 14.3886 56.2459 15.1423 56.2459 16.4311C56.2459 17.7302 56.8197 18.478 57.8395 18.478C58.8556 18.478 59.4346 17.725 59.4346 16.4311H59.4345Z" fill="black"/>
<path d="M68.0957 19.4064H66.8785L65.6497 15.0276H65.5569L64.3332 19.4064H63.1276L61.4888 13.4609H62.6789L63.744 17.9977H63.8317L65.054 13.4609H66.1797L67.402 17.9977H67.4949L68.5548 13.4609H69.7281L68.0957 19.4064Z" fill="black"/>
<path d="M71.1065 13.461H72.236V14.4054H72.3237C72.4724 14.0662 72.7233 13.7818 73.0413 13.592C73.3594 13.4021 73.7287 13.3162 74.0979 13.3462C74.3872 13.3244 74.6777 13.3681 74.9478 13.4738C75.218 13.5796 75.4608 13.7447 75.6585 13.9571C75.8561 14.1695 76.0034 14.4236 76.0895 14.7006C76.1756 14.9777 76.1983 15.2705 76.1558 15.5575V19.4064H74.9824V15.8522C74.9824 14.8967 74.5673 14.4216 73.6995 14.4216C73.5031 14.4124 73.307 14.4458 73.1247 14.5196C72.9424 14.5933 72.7782 14.7055 72.6434 14.8486C72.5085 14.9918 72.4062 15.1623 72.3435 15.3487C72.2807 15.535 72.259 15.7327 72.2798 15.9282V19.4065H71.1064L71.1065 13.461Z" fill="black"/>
<path d="M78.0254 11.1399H79.1988V19.4063H78.0254V11.1399Z" fill="black"/>
<path d="M80.8296 16.4312C80.7923 16.0404 80.837 15.6462 80.9609 15.2737C81.0849 14.9013 81.2853 14.5589 81.5493 14.2684C81.8133 13.9779 82.1351 13.7458 82.4941 13.587C82.8531 13.4282 83.2413 13.3462 83.6338 13.3462C84.0263 13.3462 84.4145 13.4282 84.7735 13.587C85.1325 13.7458 85.4543 13.9779 85.7183 14.2684C85.9823 14.5589 86.1827 14.9013 86.3066 15.2737C86.4306 15.6462 86.4753 16.0404 86.438 16.4312C86.476 16.8223 86.4318 17.2171 86.3082 17.5901C86.1846 17.9631 85.9843 18.3062 85.7202 18.5972C85.4561 18.8882 85.134 19.1208 84.7747 19.2799C84.4154 19.4391 84.0268 19.5213 83.6338 19.5213C83.2408 19.5213 82.8522 19.4391 82.4929 19.2799C82.1335 19.1208 81.8115 18.8882 81.5474 18.5972C81.2833 18.3062 81.083 17.9631 80.9594 17.5901C80.8358 17.2171 80.7916 16.8223 80.8296 16.4312ZM85.2304 16.4312C85.2304 15.1424 84.6515 14.3887 83.6354 14.3887C82.6155 14.3887 82.0417 15.1424 82.0417 16.4312C82.0417 17.7303 82.6155 18.4781 83.6354 18.4781C84.6515 18.4781 85.2304 17.7251 85.2304 16.4312H85.2304Z" fill="black"/>
<path d="M87.6733 17.725C87.6733 16.6548 88.4702 16.0378 89.8847 15.9502L91.4952 15.8573V15.3441C91.4952 14.7162 91.08 14.3616 90.278 14.3616C89.6229 14.3616 89.1691 14.6021 89.0388 15.0224H87.9029C88.0228 14.0012 88.9834 13.3462 90.3321 13.3462C91.8227 13.3462 92.6634 14.0882 92.6634 15.3441V19.4064H91.5339V18.5709H91.441C91.2526 18.8706 90.988 19.115 90.6742 19.279C90.3605 19.443 90.0088 19.5208 89.6552 19.5044C89.4056 19.5304 89.1533 19.5037 88.9146 19.4262C88.676 19.3487 88.4562 19.2221 88.2695 19.0544C88.0828 18.8868 87.9332 18.6819 87.8306 18.4529C87.7279 18.2239 87.6743 17.976 87.6733 17.725ZM91.4952 17.217V16.7199L90.0433 16.8128C89.2245 16.8676 88.8531 17.1461 88.8531 17.6702C88.8531 18.2053 89.3173 18.5167 89.9556 18.5167C90.1427 18.5357 90.3316 18.5168 90.5112 18.4612C90.6907 18.4056 90.8573 18.3145 91.0009 18.1932C91.1446 18.072 91.2624 17.9231 91.3473 17.7553C91.4322 17.5876 91.4825 17.4046 91.4952 17.217Z" fill="black"/>
<path d="M94.2056 16.431C94.2056 14.5524 95.1713 13.3622 96.6735 13.3622C97.0451 13.3451 97.4139 13.4341 97.7367 13.6188C98.0596 13.8035 98.3232 14.0763 98.4967 14.4053H98.5844V11.1399H99.7578V19.4063H98.6334V18.467H98.5406C98.3536 18.7938 98.0808 19.0632 97.7517 19.246C97.4226 19.4289 97.0498 19.5182 96.6735 19.5043C95.161 19.5044 94.2056 18.3142 94.2056 16.431ZM95.4177 16.431C95.4177 17.6921 96.0121 18.4509 97.0062 18.4509C97.9952 18.4509 98.6064 17.6811 98.6064 16.4362C98.6064 15.1971 97.9888 14.4163 97.0062 14.4163C96.0185 14.4163 95.4176 15.1803 95.4176 16.431H95.4177Z" fill="black"/>
<path d="M104.612 16.4311C104.575 16.0403 104.62 15.6461 104.744 15.2737C104.868 14.9013 105.068 14.5588 105.332 14.2684C105.596 13.9779 105.918 13.7458 106.277 13.587C106.636 13.4282 107.024 13.3462 107.416 13.3462C107.809 13.3462 108.197 13.4282 108.556 13.587C108.915 13.7458 109.237 13.9779 109.501 14.2684C109.765 14.5588 109.965 14.9013 110.089 15.2737C110.213 15.6461 110.257 16.0403 110.22 16.4311C110.258 16.8222 110.214 17.2169 110.09 17.59C109.967 17.963 109.767 18.3061 109.503 18.5971C109.238 18.8881 108.916 19.1207 108.557 19.2798C108.198 19.439 107.809 19.5212 107.416 19.5212C107.023 19.5212 106.635 19.439 106.275 19.2798C105.916 19.1207 105.594 18.8881 105.33 18.5971C105.066 18.3061 104.866 17.963 104.742 17.59C104.618 17.2169 104.574 16.8222 104.612 16.4311ZM109.013 16.4311C109.013 15.1423 108.434 14.3886 107.418 14.3886C106.398 14.3886 105.824 15.1423 105.824 16.4311C105.824 17.7302 106.398 18.478 107.418 18.478C108.434 18.478 109.013 17.725 109.013 16.4311Z" fill="black"/>
<path d="M111.794 13.461H112.924V14.4054H113.012C113.16 14.0662 113.411 13.7818 113.729 13.592C114.047 13.4021 114.417 13.3162 114.786 13.3462C115.075 13.3244 115.366 13.3681 115.636 13.4738C115.906 13.5796 116.149 13.7447 116.346 13.9571C116.544 14.1695 116.691 14.4236 116.778 14.7006C116.864 14.9777 116.886 15.2705 116.844 15.5575V19.4064H115.67V15.8522C115.67 14.8967 115.255 14.4216 114.387 14.4216C114.191 14.4124 113.995 14.4458 113.813 14.5196C113.63 14.5933 113.466 14.7055 113.331 14.8486C113.197 14.9918 113.094 15.1623 113.031 15.3487C112.969 15.535 112.947 15.7327 112.968 15.9282V19.4065H111.794V13.461Z" fill="black"/>
<path d="M123.474 11.9807V13.488H124.762V14.4764H123.474V17.5336C123.474 18.1564 123.731 18.4291 124.315 18.4291C124.464 18.4286 124.614 18.4196 124.762 18.402V19.3794C124.551 19.4171 124.338 19.4371 124.124 19.4393C122.819 19.4393 122.299 18.9803 122.299 17.834V14.4763H121.355V13.488H122.299V11.9807H123.474Z" fill="black"/>
<path d="M126.365 11.1399H127.528V14.4163H127.621C127.777 14.0739 128.034 13.7879 128.359 13.5973C128.683 13.4067 129.058 13.3208 129.433 13.3512C129.721 13.3356 130.009 13.3836 130.276 13.492C130.543 13.6003 130.783 13.7662 130.979 13.9779C131.174 14.1896 131.321 14.4419 131.407 14.7167C131.494 14.9915 131.519 15.2821 131.481 15.5678V19.4064H130.307V15.8572C130.307 14.9076 129.864 14.4266 129.035 14.4266C128.834 14.4101 128.631 14.4378 128.441 14.5078C128.251 14.5779 128.079 14.6886 127.936 14.8321C127.794 14.9757 127.684 15.1487 127.615 15.339C127.547 15.5293 127.52 15.7324 127.538 15.9339V19.4063H126.365L126.365 11.1399Z" fill="black"/>
<path d="M138.323 17.801C138.164 18.3444 137.818 18.8144 137.347 19.1288C136.876 19.4433 136.31 19.5821 135.747 19.5211C135.355 19.5314 134.966 19.4564 134.606 19.3012C134.246 19.146 133.925 18.9144 133.663 18.6224C133.402 18.3304 133.207 17.9851 133.093 17.6103C132.978 17.2356 132.947 16.8404 133 16.4523C132.948 16.0629 132.98 15.6669 133.095 15.291C133.209 14.9151 133.402 14.5682 133.662 14.2737C133.922 13.9791 134.242 13.7439 134.601 13.5838C134.96 13.4238 135.349 13.3427 135.742 13.346C137.396 13.346 138.394 14.4763 138.394 16.3433V16.7527H134.196V16.8185C134.177 17.0366 134.205 17.2563 134.276 17.4632C134.348 17.6702 134.462 17.8599 134.611 18.0203C134.76 18.1807 134.941 18.3081 135.142 18.3945C135.343 18.4808 135.56 18.5242 135.779 18.5217C136.06 18.5554 136.344 18.5049 136.596 18.3765C136.848 18.2482 137.056 18.0478 137.194 17.8009L138.323 17.801ZM134.196 15.8849H137.199C137.214 15.6854 137.186 15.4849 137.119 15.2965C137.052 15.1081 136.946 14.9358 136.808 14.7907C136.67 14.6457 136.504 14.5311 136.319 14.4542C136.134 14.3774 135.935 14.3401 135.735 14.3447C135.532 14.3422 135.331 14.3803 135.143 14.4568C134.955 14.5333 134.784 14.6466 134.641 14.7902C134.497 14.9337 134.384 15.1045 134.308 15.2925C134.231 15.4806 134.193 15.682 134.196 15.8849H134.196Z" fill="black"/>
</g>
<defs>
<clipPath id="clip0_265_4582">
<rect width="158" height="52.8145" fill="white"/>
</clipPath>
</defs>
</svg>
